<?xml version="1.0" encoding="UTF-8"?>
<svg width="256px" height="256px" viewBox="0 0 256 256" version="1.1" xmlns="http://www.w3.org/2000/svg" xmlns:xlink="http://www.w3.org/1999/xlink">
    <title>favicon</title>
    <g id="Page-1" stroke="none" stroke-width="1" fill="none" fill-rule="evenodd">
        <g id="favicon" fill="#000000">
            <polygon id="Path" fill-rule="nonzero" points="128 128 160 128 160 160 128 160"></polygon>
            <polygon id="Path" fill-rule="nonzero" points="96 128 96 96 128 96 128 128"></polygon>
            <polygon id="Path" fill-rule="nonzero" points="96 128 96 160 64 160 64 128"></polygon>
            <polygon id="Path" fill-rule="nonzero" points="192 64 160 64 160 96 192 96"></polygon>
            <path d="M0,0 L0,256 L256,256 L256,0 L0,0 Z M224,224 L160,224 L160,192 L192,192 L192,160 L224,160 L224,224 Z M160,160 L192,160 L192,128 L224,128 L224,32 L32,32 L32,160 L64,160 L64,192 L32,192 L32,224 L128,224 L128,192 L160,192 L160,160 Z" id="Shape"></path>
        </g>
    </g>
</svg>