<?xml version="1.0" encoding="UTF-8"?>
<svg width="39px" height="39px" viewBox="0 0 39 39" version="1.1" xmlns="http://www.w3.org/2000/svg" xmlns:xlink="http://www.w3.org/1999/xlink">
    <title>floppy</title>
    <g id="Page-1" stroke="none" stroke-width="1" fill="none" fill-rule="evenodd">
        <g id="floppy" fill="#000000" fill-rule="nonzero">
            <path d="M0,0 L3,0 L3,3 L0,3 L0,0 Z M0,3 L3,3 L3,6 L0,6 L0,3 Z M0,6 L3,6 L3,9 L0,9 L0,6 Z M0,9 L3,9 L3,12 L0,12 L0,9 Z M0,12 L3,12 L3,15 L0,15 L0,12 Z M0,15 L3,15 L3,18 L0,18 L0,15 Z M0,18 L3,18 L3,21 L0,21 L0,18 Z M0,21 L3,21 L3,24 L0,24 L0,21 Z M0,24 L3,24 L3,27 L0,27 L0,24 Z M0,27 L3,27 L3,30 L0,30 L0,27 Z M0,30 L3,30 L3,33 L0,33 L0,30 Z M0,33 L3,33 L3,36 L0,36 L0,33 Z M0,36 L3,36 L3,39 L0,39 L0,36 Z M33,0 L33,3 L30,3 L30,0 L33,0 Z M30,0 L30,3 L27,3 L27,0 L30,0 Z M27,0 L27,3 L24,3 L24,0 L27,0 Z M24,0 L24,3 L21,3 L21,0 L24,0 Z M21,0 L21,3 L18,3 L18,0 L21,0 Z M18,0 L18,3 L15,3 L15,0 L18,0 Z M15,0 L15,3 L12,3 L12,0 L15,0 Z M12,0 L12,3 L9,3 L9,0 L12,0 Z M9,0 L9,3 L6,3 L6,0 L9,0 Z M6,0 L6,3 L3,3 L3,0 L6,0 Z M36,3 L36,6 L33,6 L33,3 L36,3 Z M9,6 L9,9 L6,9 L6,6 L9,6 Z M9,3 L9,6 L6,6 L6,3 L9,3 Z M9,9 L9,12 L6,12 L6,9 L9,9 Z M30,6 L30,9 L27,9 L27,6 L30,6 Z M30,3 L30,6 L27,6 L27,3 L30,3 Z M30,9 L30,12 L27,12 L27,9 L30,9 Z M24,6 L24,9 L21,9 L21,6 L24,6 Z M24,3 L24,6 L21,6 L21,3 L24,3 Z M24,9 L24,12 L21,12 L21,9 L24,9 Z M30,12 L30,15 L27,15 L27,12 L30,12 Z M27,12 L27,15 L24,15 L24,12 L27,12 Z M24,12 L24,15 L21,15 L21,12 L24,12 Z M21,12 L21,15 L18,15 L18,12 L21,12 Z M18,12 L18,15 L15,15 L15,12 L18,12 Z M15,12 L15,15 L12,15 L12,12 L15,12 Z M12,12 L12,15 L9,15 L9,12 L12,12 Z M9,12 L9,15 L6,15 L6,12 L9,12 Z M33,21 L33,24 L30,24 L30,21 L33,21 Z M30,21 L30,24 L27,24 L27,21 L30,21 Z M27,21 L27,24 L24,24 L24,21 L27,21 Z M24,21 L24,24 L21,24 L21,21 L24,21 Z M21,21 L21,24 L18,24 L18,21 L21,21 Z M18,21 L18,24 L15,24 L15,21 L18,21 Z M15,21 L15,24 L12,24 L12,21 L15,21 Z M12,21 L12,24 L9,24 L9,21 L12,21 Z M9,21 L9,24 L6,24 L6,21 L9,21 Z M33,24 L33,27 L30,27 L30,24 L33,24 Z M9,24 L9,27 L6,27 L6,24 L9,24 Z M33,27 L33,30 L30,30 L30,27 L33,27 Z M9,27 L9,30 L6,30 L6,27 L9,27 Z M33,30 L33,33 L30,33 L30,30 L33,30 Z M9,30 L9,33 L6,33 L6,30 L9,30 Z M9,33 L9,36 L6,36 L6,33 L9,33 Z M33,33 L33,36 L30,36 L30,33 L33,33 Z M36,36 L36,39 L33,39 L33,36 L36,36 Z M33,36 L33,39 L30,39 L30,36 L33,36 Z M30,36 L30,39 L27,39 L27,36 L30,36 Z M27,36 L27,39 L24,39 L24,36 L27,36 Z M24,36 L24,39 L21,39 L21,36 L24,36 Z M21,36 L21,39 L18,39 L18,36 L21,36 Z M18,36 L18,39 L15,39 L15,36 L18,36 Z M15,36 L15,39 L12,39 L12,36 L15,36 Z M12,36 L12,39 L9,39 L9,36 L12,36 Z M9,36 L9,39 L6,39 L6,36 L9,36 Z M6,36 L6,39 L3,39 L3,36 L6,36 Z M39,39 L36,39 L36,36 L39,36 L39,39 Z M39,36 L36,36 L36,33 L39,33 L39,36 Z M39,33 L36,33 L36,30 L39,30 L39,33 Z M39,30 L36,30 L36,27 L39,27 L39,30 Z M39,27 L36,27 L36,24 L39,24 L39,27 Z M39,24 L36,24 L36,21 L39,21 L39,24 Z M39,21 L36,21 L36,18 L39,18 L39,21 Z M39,18 L36,18 L36,15 L39,15 L39,18 Z M39,15 L36,15 L36,12 L39,12 L39,15 Z M39,12 L36,12 L36,9 L39,9 L39,12 Z M39,9 L36,9 L36,6 L39,6 L39,9 Z" id="Shape"></path>
        </g>
    </g>
</svg>