<?xml version="1.0" encoding="UTF-8"?>
<svg width="39px" height="36px" viewBox="0 0 39 36" version="1.1" xmlns="http://www.w3.org/2000/svg" xmlns:xlink="http://www.w3.org/1999/xlink">
    <title>heart</title>
    <g id="Page-1" stroke="none" stroke-width="1" fill="none" fill-rule="evenodd">
        <g id="heart">
            <g id="Group" transform="translate(6.000000, 6.000000)">
                <path d="M6,0 L3,0 L3,3 L6,3 L6,0 Z M9,0 L6,0 L6,3 L9,3 L9,0 Z M3,3 L0,3 L0,6 L3,6 L3,3 Z M3,6 L0,6 L0,9 L3,9 L3,6 Z M3,9 L0,9 L0,12 L3,12 L3,9 Z M12,0 L9,0 L9,3 L12,3 L12,0 Z M6,12 L3,12 L3,15 L6,15 L6,12 Z M9,15 L6,15 L6,18 L9,18 L9,15 Z M12,18 L9,18 L9,21 L12,21 L12,18 Z M21,0 L24,0 L24,3 L21,3 L21,0 Z M18,0 L21,0 L21,3 L18,3 L18,0 Z M24,3 L27,3 L27,6 L24,6 L24,3 Z M24,6 L27,6 L27,9 L24,9 L24,6 Z M24,9 L27,9 L27,12 L24,12 L24,9 Z M15,0 L18,0 L18,3 L15,3 L15,0 Z M21,12 L24,12 L24,15 L21,15 L21,12 Z M18,15 L21,15 L21,18 L18,18 L18,15 Z M15,18 L18,18 L18,21 L15,21 L15,18 Z M15,21 L12,21 L12,24 L15,24 L15,21 Z M15,3 L12,3 L12,6 L15,6 L15,3 Z" id="Shape" fill="#000000" fill-rule="nonzero"></path>
                <path d="M6,3 L3,3 L3,6 L6,6 L6,3 Z M9,6 L6,6 L6,9 L9,9 L9,6 Z M12,3 L9,3 L9,6 L12,6 L12,3 Z M6,9 L3,9 L3,12 L6,12 L6,9 Z M9,9 L6,9 L6,12 L9,12 L9,9 Z M9,12 L6,12 L6,15 L9,15 L9,12 Z M12,6 L9,6 L9,9 L12,9 L12,6 Z M12,15 L9,15 L9,18 L12,18 L12,15 Z M12,12 L9,12 L9,15 L12,15 L12,12 Z M21,3 L24,3 L24,6 L21,6 L21,3 Z M18,3 L21,3 L21,6 L18,6 L18,3 Z M21,6 L24,6 L24,9 L21,9 L21,6 Z M18,6 L21,6 L21,9 L18,9 L18,6 Z M15,3 L18,3 L18,6 L15,6 L15,3 Z M21,9 L24,9 L24,12 L21,12 L21,9 Z M18,9 L21,9 L21,12 L18,12 L18,9 Z M18,12 L21,12 L21,15 L18,15 L18,12 Z M15,6 L18,6 L18,9 L15,9 L15,6 Z M15,15 L18,15 L18,18 L15,18 L15,15 Z M15,12 L18,12 L18,15 L15,15 L15,12 Z M15,15 L12,15 L12,18 L15,18 L15,15 Z M15,18 L12,18 L12,21 L15,21 L15,18 Z" id="Shape"></path>
                <path d="M12,9 L9,9 L9,12 L12,12 L12,9 Z M15,9 L18,9 L18,12 L15,12 L15,9 Z M15,9 L12,9 L12,12 L15,12 L15,9 Z M15,6 L12,6 L12,9 L15,9 L15,6 Z M15,12 L12,12 L12,15 L15,15 L15,12 Z" id="Shape"></path>
            </g>
            <path d="M36,13 L39,13 L39,16 L36,16 L36,13 Z M27,27 L30,27 L30,30 L27,30 L27,27 Z M18,33 L21,33 L21,36 L18,36 L18,33 Z M9,27 L12,27 L12,30 L9,30 L9,27 Z M24,0 L27,0 L27,3 L24,3 L24,0 Z M33,3 L36,3 L36,6 L33,6 L33,3 Z M3,3 L6,3 L6,6 L3,6 L3,3 Z M12,0 L15,0 L15,3 L12,3 L12,0 Z M0,13 L3,13 L3,16 L0,16 L0,13 Z" id="Shape" fill="#000000" fill-rule="nonzero"></path>
        </g>
    </g>
</svg>